<svg xmlns="http://www.w3.org/2000/svg" width="52.16" height="52.16" viewBox="0 0 52.16 52.16">
  <g id="Icon" transform="translate(-630.283 -407.841)">
    <path id="Path_55" data-name="Path 55" d="M-4.923-9.512A24.339,24.339,0,0,1-29.235-33.824,24.339,24.339,0,0,1-4.923-58.136,24.339,24.339,0,0,1,19.389-33.824,24.339,24.339,0,0,1-4.923-9.512m0-50.392A26.11,26.11,0,0,0-31-33.824,26.11,26.11,0,0,0-4.923-7.744a26.11,26.11,0,0,0,26.08-26.08A26.11,26.11,0,0,0-4.923-59.9" transform="translate(661.286 467.745)" fill="#1e81d9"/>
    <path id="Path_56" data-name="Path 56" d="M-1.832-4.92V-7.228l.678-.678h0l12.7-12.7h0l.678-.678h2.311Zm-7.4-11.066H1.873v-1.629H-7.6l1.629-1.629h4.744v-1.629H-4.345L3.461-28.68l6.925,6.926L-2.308-9.059l-6.926-6.927ZM16.155-22.91H11.54v0h0L4.613-29.833l0,0L3.463-30.987l0,0h0L2.307-29.835l0,0-12.7,12.7-1.152,1.152h0l1.152,1.152h0l6.926,6.926h0v4.616l1.154,1.152L17.309-21.756Z" transform="translate(655.003 445.84)" fill="#1e81d9"/>
    <path id="Path_59" data-name="Path 59" d="M-2.389-2.688-5.951-7.671l-6.166,2.057,2.054-6.169-4.983-3.563,6.327-1.58.4,1.581-2.9.724,3.091,2.21-1.4,4.219L-5.325-9.6-3.114-6.5l.726-2.9,1.58.395Z" transform="translate(657.179 455.222)" fill="#1e81d9"/>
    <path id="Path_58" data-name="Path 58" d="M-2.389-2.688-5.951-7.671l-6.166,2.057,2.054-6.169-4.983-3.563,6.327-1.58.4,1.581-2.9.724,3.091,2.21-1.4,4.219L-5.325-9.6-3.114-6.5l.726-2.9,1.58.395Z" transform="translate(657.179 455.222)" fill="#1e81d9"/>
  </g>
</svg>
