<?xml version="1.0" encoding="utf-8"?>
<svg version="1.1" id="a" xmlns="http://www.w3.org/2000/svg" xmlns:xlink="http://www.w3.org/1999/xlink" x="0px" y="0px"
	 viewBox="0 0 40 40" style="enable-background:new 0 0 40 40;" xml:space="preserve">
<style type="text/css">
	.st0{opacity:0.8;}
	.st1{clip-path:url(#SVGID_2_);}
	.st2{clip-path:url(#SVGID_4_);fill:#FF9017;}
	.st3{fill:#FFFFFF;}
</style>
<g class="st0">
	<g>
		<defs>
			<rect id="SVGID_1_" width="40" height="40"/>
		</defs>
		<clipPath id="SVGID_2_">
			<use xlink:href="#SVGID_1_"  style="overflow:visible;"/>
		</clipPath>
		<g class="st1">
			<defs>
				<rect id="SVGID_3_" x="0" y="0" width="40" height="40"/>
			</defs>
			<clipPath id="SVGID_4_">
				<use xlink:href="#SVGID_3_"  style="overflow:visible;"/>
			</clipPath>
			<path class="st2" d="M35.9,40H4.1C1.8,40,0,38.2,0,35.9V4.1C0,1.8,1.8,0,4.1,0h31.8C38.2,0,40,1.8,40,4.1v31.8
				C40,38.2,38.2,40,35.9,40"/>
		</g>
	</g>
</g>
<path class="st3" d="M20,33.4l-2.3-3.7L14,32.1l-0.4-4.3l-4.4,0.6l1.6-4L6.6,23l3.2-3l-3.2-3l4.2-1.3l-1.6-4l4.4,0.6L14,7.9l3.7,2.4
	L20,6.6l2.3,3.7L26,7.9l0.4,4.3l4.4-0.6l-1.6,4l4.2,1.3l-3.2,3l3.2,3l-4.2,1.3l1.6,4l-4.4-0.6L26,32.1l-3.7-2.4L20,33.4z M18.1,28.3
	l1.9,3.2l1.9-3.2l3.2,2l0.3-3.7l3.8,0.5l-1.3-3.5l3.6-1.1L28.7,20l2.8-2.5l-3.6-1.1l1.3-3.5l-3.8,0.5l-0.3-3.7l-3.2,2L20,8.5
	l-1.9,3.2l-3.2-2l-0.3,3.7l-3.8-0.5l1.3,3.5l-3.6,1.1l2.8,2.5l-2.8,2.5l3.6,1.1l-1.3,3.5l3.8-0.5l0.3,3.7L18.1,28.3z M19.6,28h-0.5
	V28c-4.3-0.3-7.7-3.8-7.7-8c0-4.4,3.7-8,8.2-8c0.1,0,0.2,0,0.3,0l0.3,0c0.1,0,0.2,0,0.3,0c4.2,0.4,7.4,3.9,7.4,8
	C27.9,24.4,24.2,28,19.6,28 M19.6,13c-4,0-7.2,3.2-7.2,7c0,3.9,3.2,7,7.2,7l0.5,0c3.8-0.3,6.7-3.3,6.7-7c0-3.6-2.8-6.6-6.5-7
	c-0.1,0-0.5,0-0.5,0C19.8,13,19.7,13,19.6,13"/>
</svg>
