<svg xmlns="http://www.w3.org/2000/svg" width="51.77" height="52.16" viewBox="0 0 51.77 52.16">
  <g id="Icon" transform="translate(-761.889 -354.965)">
    <path id="Path_3" data-name="Path 3" d="M787.773,405.357A24.312,24.312,0,1,1,811.9,381.046a24.251,24.251,0,0,1-24.129,24.311m0-50.392a26.081,26.081,0,1,0,25.886,26.081,26.012,26.012,0,0,0-25.886-26.081" fill="#1e81d9"/>
    <path id="Path_4" data-name="Path 4" d="M780.505,375.5l-2.62-1.6,8.82-5.37,2.622,1.6Zm.755,4.531V377.8l.561.341v2.233Zm-4.133-4.747,2.622,1.6v4.074l3.578,2.176v-4.074l2.623,1.6V392.5l-8.823-5.371Zm4.889,1.135,8.818-5.37.562.341-8.821,5.37Zm4.689,2.856-2.619-1.6,8.819-5.37,2.622,1.594Zm3.575,11.792-.159-.185-2.661,1.62V380.654l8.819-5.37v2.967l.261.033a7.228,7.228,0,0,1,.887.172l.368.1v-5.109l-11.09-6.743-11.085,6.744v14.607l11.085,6.749,4.558-2.776-.321-.286a7.5,7.5,0,0,1-.662-.671" fill="#1e81d9"/>
    <path id="Path_5" data-name="Path 5" d="M795.492,384.439l-.918-1.527-1.409.887,2.543,3.54,3.2-5.227L797.4,381.4Z" transform="translate(0 1.562)" fill="#1e81d9"/>
    <path id="Path_81" data-name="Path 81" d="M795.739,390.288a6.153,6.153,0,1,1,.169-12.3h.133a6.269,6.269,0,0,1,6.23,6.134v.036a6.277,6.277,0,0,1-6.265,6.135Zm.068-10.6a4.408,4.408,0,0,0-3.19,7.631,4.626,4.626,0,0,0,3.256,1.269h.1a4.452,4.452,0,1,0,.035-8.9Z" transform="translate(0 1.593)" fill="#1e81d9"/>
  </g>
</svg>
