<svg xmlns="http://www.w3.org/2000/svg" viewBox="0 0 80 540"><title>dialog-close</title><rect width="80" height="420" style="fill:none"/><polygon points="41 30 50 39 49 40 40 31 31 40 30 39 39 30 30 21 31 20 40 29 49 20 50 21 41 30"/><rect y="120" width="80" height="60" style="fill:#e81123"/><polygon points="41 150 50 159 49 160 40 151 31 160 30 159 39 150 30 141 31 140 40 149 49 140 50 141 41 150" style="fill:#fff"/><rect y="480" width="80" height="60"/><polygon points="41 510 50 519 49 520 40 511 31 520 30 519 39 510 30 501 31 500 40 509 49 500 50 501 41 510" style="fill:#fff"/><rect y="240" width="80" height="60" style="fill:#f1707a"/><polygon points="41 270 50 279 49 280 40 271 31 280 30 279 39 270 30 261 31 260 40 269 49 260 50 261 41 270"/><polygon points="41 390 50 399 49 400 40 391 31 400 30 399 39 390 30 381 31 380 40 389 49 380 50 381 41 390" style="fill:#ccc"/></svg>