<svg xmlns="http://www.w3.org/2000/svg" width="52.16" height="52.16" viewBox="0 0 52.16 52.16">
  <g id="Icon" transform="translate(-51.277)">
    <path id="Path_52" data-name="Path 52" d="M-4.923-9.512A24.339,24.339,0,0,1-29.235-33.824,24.339,24.339,0,0,1-4.923-58.136,24.339,24.339,0,0,1,19.389-33.824,24.339,24.339,0,0,1-4.923-9.512m0-50.392A26.11,26.11,0,0,0-31-33.824,26.109,26.109,0,0,0-4.923-7.744a26.109,26.109,0,0,0,26.08-26.08A26.11,26.11,0,0,0-4.923-59.9" transform="translate(82.28 59.904)" fill="#1e81d9"/>
    <path id="Path_53" data-name="Path 53" d="M0,0S10.81,5.616,13.983,6.876a3.886,3.886,0,0,0,3.028,0C19.094,6.1,31,0,31,0S20.307,9.742,19.116,10.942a3.387,3.387,0,0,0-1.081,2.109C17.4,18.235,15.5,33.791,15.5,33.791S13.22,14.7,12.976,13.053a3.141,3.141,0,0,0-1.083-2.112C10.064,9.254,0,0,0,0" transform="translate(61.859 11.764)" fill="#1e81d9"/>
  </g>
</svg>
