<svg xmlns="http://www.w3.org/2000/svg" width="52.221" height="52.221" viewBox="0 0 52.221 52.221">
  <g id="Icon" transform="translate(-29.921 0)">
    <g id="Group_71" data-name="Group 71">
      <path id="People" d="M-7.35-3.681c-.206-.259-8.759-2.063-9.141-2.343-.524-.381-.279-1.361.046-1.776.785-1,3.477-2.973,3.477-8,0-2.064-.749-7.384-6.98-7.381a6.583,6.583,0,0,0-4.313,1.311l0,0a8.878,8.878,0,0,0-2.064-.226,9.091,9.091,0,0,0-1.694.151,7.053,7.053,0,0,0-4.3-1.237c-6.232,0-6.519,5.225-6.519,7.363A11,11,0,0,0-35.827-7.8a1.645,1.645,0,0,1-.125,1.754c-.363.3-8.564,2.157-8.762,2.392-.575.686-1.573,6.692-1.573,6.692h1.754a43.626,43.626,0,0,1,1.195-5.261c.279-.225,7.882-2.021,9.134-2.517.575-.228.454-3.562.2-4.061a8.628,8.628,0,0,1-2.944-7.016c0-2.138,1.109-5.512,4.728-5.512a4.925,4.925,0,0,1,1.857.34c-2.333,1.652-2.48,4.736-2.48,6.259a11.006,11.006,0,0,0,3.006,8.017,1.643,1.643,0,0,1-.125,1.754c-.363.3-8.564,2.157-8.761,2.392-.575.686-1.573,6.691-1.573,6.691h1.753a43.638,43.638,0,0,1,1.2-5.261c.279-.226,7.882-2.021,9.133-2.517.576-.228.455-3.562.2-4.061a8.628,8.628,0,0,1-2.944-7.015c0-2.139,1.109-5.512,4.727-5.512,3.729,0,4.847,3.373,4.847,5.512A8.389,8.389,0,0,1-24.51-7.715c-.284.49-.47,3.83.064,4.061,1.141.493,9.374,2.253,9.59,2.453.316.3.785,5.325.785,5.325H-12.4s-.746-5.984-1.328-6.719c-.2-.259-8.758-2.063-9.141-2.342-.524-.382-.279-1.362.046-1.777.785-1,3.477-2.973,3.477-8,0-1.429-.361-4.418-2.65-6.121a4.534,4.534,0,0,1,2.14-.494c3.728,0,4.847,3.373,4.847,5.512A8.389,8.389,0,0,1-18.137-8.8c-.283.49-.47,3.83.065,4.061,1.14.493,9.374,2.253,9.589,2.453.317.3.786,5.325.786,5.325h1.676S-6.769-2.946-7.35-3.681" transform="translate(82.36 31.074)" fill="#1e81d9" fill-rule="evenodd"/>
      <path id="Circle" d="M-4.929,0a26.11,26.11,0,0,0-26.11,26.11A26.11,26.11,0,0,0-4.929,52.221,26.111,26.111,0,0,0,21.182,26.11,26.111,26.111,0,0,0-4.929,0m0,1.629A24.481,24.481,0,0,1,19.553,26.11,24.481,24.481,0,0,1-4.929,50.592,24.481,24.481,0,0,1-29.41,26.11,24.51,24.51,0,0,1-4.929,1.629" transform="translate(60.96 0)" fill="#1e81d9"/>
    </g>
    <g id="Gears" transform="translate(-617.48 -345.828)">
      <path id="Gear_3" data-name="Gear 3" d="M678.385,383.892l.435-.435a3.369,3.369,0,0,0,1.295.542v.587h1.242v-.6a3.389,3.389,0,0,0,1.308-.562l.422.422.878-.878-.431-.431a3.361,3.361,0,0,0,.5-1.192h.622v-1.242h-.6a3.4,3.4,0,0,0-.552-1.337l.438-.439-.878-.873-.435.435a3.336,3.336,0,0,0-1.281-.54v-.625H680.11v.624a3.419,3.419,0,0,0-1.249.514l-.446-.446-.878.878.434.434a3.36,3.36,0,0,0-.58,1.375h-.6v1.242h.632a3.4,3.4,0,0,0,.528,1.23l-.44.44Zm1.019-4.813a2.084,2.084,0,0,1,1.332-.479,2.009,2.009,0,0,1,1.284.455l.3.3a2.072,2.072,0,0,1,0,2.638l-.281.277a2.066,2.066,0,0,1-2.617.023l-.295-.3a2.064,2.064,0,0,1-.016-2.623Z" fill="#1e81d9"/>
      <path id="Gear_2" data-name="Gear 2" d="M690.04,386.459v-1.242h-.606a2.6,2.6,0,0,0-.314-.783l.465-.464-.878-.873-.468.468a2.607,2.607,0,0,0-.713-.291v-.635h-1.242v.635a2.627,2.627,0,0,0-.688.27l-.454-.452-.873.878.438.438a2.567,2.567,0,0,0-.32.755h-.639v1.243h.639a2.612,2.612,0,0,0,.292.72l-.461.461.877.873.456-.456a2.586,2.586,0,0,0,.733.3v.622h1.242V388.3a2.615,2.615,0,0,0,.754-.317l.427.426.878-.878-.437-.437a2.584,2.584,0,0,0,.258-.635Zm-2.144.144-.173.176a1.282,1.282,0,0,1-1.62.02l-.193-.19a1.279,1.279,0,0,1-.018-1.619l.189-.192a1.3,1.3,0,0,1,.83-.3,1.231,1.231,0,0,1,.785.276l.2.186A1.287,1.287,0,0,1,687.9,386.6Z" fill="#1e81d9"/>
      <path id="Gear1" d="M683,387.277l.328-.328-.879-.878-.327.327a2.267,2.267,0,0,0-.493-.2v-.463h-1.242v.464a2.225,2.225,0,0,0-.494.2l-.327-.327-.878.878.32.32a2.269,2.269,0,0,0-.2.512h-.47v1.242h.475a2.348,2.348,0,0,0,.2.491l-.33.33.878.879.327-.328a2.215,2.215,0,0,0,.506.2v.468h1.242v-.471a2.286,2.286,0,0,0,.5-.2l.331.33.878-.878-.332-.331a2.215,2.215,0,0,0,.2-.49h.467v-1.242H683.2A2.255,2.255,0,0,0,683,387.277Zm-1.231,1.741-.14.133a.977.977,0,0,1-1.237.011l-.142-.138a.971.971,0,0,1-.017-1.229l.146-.149a.99.99,0,0,1,.635-.229.923.923,0,0,1,.59.207l.154.156A.975.975,0,0,1,681.771,389.018Z" fill="#1e81d9"/>
    </g>
  </g>
</svg>
