<svg xmlns="http://www.w3.org/2000/svg" width="52.157" height="52.16" viewBox="0 0 52.157 52.16">
  <g id="Icon" transform="translate(-603.6 -366.558)">
    <path id="Path_8" data-name="Path 8" d="M629.677,416.95a24.312,24.312,0,1,1,24.312-24.312,24.339,24.339,0,0,1-24.312,24.312m0-50.392a26.08,26.08,0,1,0,26.08,26.08,26.109,26.109,0,0,0-26.08-26.08" fill="#1e81d9"/>
    <path id="Path_76" data-name="Path 76" d="M643.852,385.761h-4.673a2.777,2.777,0,0,1-3.451-2.269h-12.12a2.824,2.824,0,0,0-2.821,2.821v8.345a2.816,2.816,0,0,0,2.552,2.794,3.24,3.24,0,0,0,6.475.027h5.914a2.793,2.793,0,0,0,1.679-.567,2.869,2.869,0,0,0,.89.492,3.245,3.245,0,0,0,6.489-.018,2.817,2.817,0,0,0,1.888-2.651V388.58A2.825,2.825,0,0,0,643.852,385.761ZM626.578,398.4a1.049,1.049,0,0,1-1.031-.919h0a1.1,1.1,0,0,1-.028-.141h0a1.056,1.056,0,0,1,2.112,0,.938.938,0,0,1-.029.142h0A1.049,1.049,0,0,1,626.578,398.4Zm9.781-9.815v6.076a.632.632,0,0,1-.631.631H629.08a3.205,3.205,0,0,0-5,0h-.467a.633.633,0,0,1-.632-.632v-8.345a.632.632,0,0,1,.631-.631h12.12a.632.632,0,0,1,.631.631Zm6.2,8.975a1.034,1.034,0,0,1-2.031,0h0a1.031,1.031,0,0,1-.044-.221,1.056,1.056,0,0,1,2.112,0,1.033,1.033,0,0,1-.045.221Zm1.927-2.822a.626.626,0,0,1-.412.587,3.209,3.209,0,0,0-5.067.009.625.625,0,0,1-.454-.6v-6.153a.633.633,0,0,1,.631-.632h4.671a.633.633,0,0,1,.631.633Z" fill="#1e81d9"/>
    <path id="Path_77" data-name="Path 77" d="M634.027,391.435a.771.771,0,0,1,.026-1.541h.027a1.1,1.1,0,0,0,.077-2.19,2.988,2.988,0,0,0-2.831,1.837l-3.59-.008a2.952,2.952,0,0,0-2.686-1.971,1.1,1.1,0,0,0-.075,2.19.77.77,0,1,1-.053,1.539l-.075,2.189h.1a2.964,2.964,0,0,0,2.7-1.758l3.641.007a2.967,2.967,0,0,0,2.657,1.893h.039a1.095,1.095,0,0,0,.038-2.189Z" fill="#1e81d9"/>
    <path id="Path_78" data-name="Path 78" d="M618.406,387.879h-5.652a1.1,1.1,0,1,1,0-2.19h5.652a1.1,1.1,0,0,1,0,2.19Z" fill="#1e81d9"/>
    <path id="Path_79" data-name="Path 79" d="M618.5,391.091H610.74a1.1,1.1,0,0,1,0-2.19H618.5a1.1,1.1,0,1,1,0,2.19Z" fill="#1e81d9"/>
    <path id="Path_80" data-name="Path 80" d="M618.054,394.3h-4.3a1.1,1.1,0,1,1,0-2.19h4.3a1.1,1.1,0,0,1,0,2.19Z" fill="#1e81d9"/>
  </g>
</svg>
